<svg width="34" height="11" viewBox="0 0 34 11" fill="none" xmlns="http://www.w3.org/2000/svg">
<path d="M0.0132134 2.93656C-5.2366e-05 3.49546 0.204044 3.71555 0.367908 3.89257C0.42021 3.94976 0.465879 3.99869 0.500457 4.05665C0.57755 4.18637 0.632462 4.34752 0.66356 4.53585C1.33892 8.62973 1.49093 9.18776 3.2046 10.0904C4.0249 10.5228 5.7116 10.8128 7.40124 10.8128C8.71879 10.8128 10.6219 10.6394 12.2045 9.81386C14.5103 8.61071 15.3694 4.45766 15.4097 4.24867C15.412 4.22758 15.4801 3.73207 16.5335 3.73207H16.5346L16.5991 3.73153C17.5983 3.73153 17.6672 4.22758 17.6745 4.28108C17.7099 4.45766 18.5692 8.61005 20.8749 9.81386C22.4576 10.6399 24.3607 10.8128 25.6782 10.8128C27.3679 10.8128 29.0543 10.5222 29.8747 10.0904C31.5886 9.18776 31.7406 8.62919 32.4156 4.5353C32.4466 4.34752 32.5018 4.18648 32.5789 4.05621C32.6133 3.99826 32.6588 3.94922 32.7113 3.89202C32.8751 3.715 33.0795 3.49427 33.0661 2.93602C33.0638 2.84251 33.0678 2.67614 33.0717 2.49379C33.0785 2.21532 33.0847 1.90173 33.0751 1.73276C33.0267 0.904736 32.294 0.567547 31.9253 0.507525C29.5678 0.0233263 26.7374 -0.116942 23.7494 0.0975929L23.5934 0.108684C21.7707 0.237644 20.7669 0.308539 19.5705 0.844279C19.2929 0.968781 19.0073 1.10948 18.7545 1.23931C18.3047 1.47103 17.655 1.72243 17.3058 1.79898C17.1654 1.83029 17.0229 1.86095 16.8968 1.88629C16.7152 1.92315 16.3639 1.92315 16.1823 1.88629C16.0561 1.86041 15.9137 1.83029 15.7729 1.79898C15.4246 1.72243 14.7749 1.47103 14.3248 1.23931C14.0722 1.10959 13.7867 0.968781 13.5089 0.844279C12.3125 0.308539 11.3089 0.237644 9.48624 0.108684L9.32999 0.0975929C6.34107 -0.11629 3.50666 0.0244138 1.16581 0.505785C0.785996 0.567982 0.0537717 0.905279 0.0053844 1.7333C-0.0050542 1.90217 0.00179614 2.21587 0.00821153 2.49423C0.0114736 2.67723 0.0153881 2.84392 0.0132134 2.93656ZM32.3873 1.91935V2.53196L31.6243 2.22576L32.3873 1.91935ZM19.1571 2.79825C19.2725 2.51163 19.9993 1.55682 24.5083 1.29433C25.2988 1.24845 25.9693 1.22594 26.5584 1.22594C29.217 1.22594 30.0632 1.70394 30.5666 2.47477C30.8679 2.93591 31.0727 3.90061 31.075 4.51214C31.0807 5.84763 30.8121 8.22143 28.9603 9.11894C28.1117 9.52995 26.8393 9.77548 25.5572 9.77548C23.0961 9.77548 21.1289 8.93876 20.2961 7.53792C18.5438 4.59467 19.1355 2.84729 19.1571 2.79825ZM2.51141 2.47433C3.0154 1.70318 3.86136 1.22551 6.51972 1.22551C7.10896 1.22551 7.77953 1.24801 8.57004 1.2939C13.078 1.55682 13.8055 2.51174 13.9347 2.83164C13.9417 2.8474 14.5337 4.59543 12.7833 7.53814C11.9496 8.93898 9.98306 9.7757 7.52226 9.7757C6.23962 9.7757 4.96709 9.53017 4.1183 9.11915C2.26643 8.22165 1.99818 5.84785 2.00351 4.51236C2.00579 3.89996 2.21043 2.93548 2.51141 2.47433ZM0.6902 1.91935L1.45287 2.22565L0.6902 2.53185V1.91935Z" fill="#009AFF"/>
</svg>
