<svg width="18" height="18" viewBox="0 0 18 18" fill="none" xmlns="http://www.w3.org/2000/svg">
<g clip-path="url(#clip0)">
<path d="M7.45461 10.5463C5.73654 8.82825 5.34861 7.11018 5.26109 6.42184C5.23663 6.23151 5.30213 6.04064 5.4383 5.90543L6.82864 4.5157C7.03316 4.31131 7.06946 3.99276 6.91616 3.7476L4.70247 0.31022C4.53287 0.0387456 4.18464 -0.0592322 3.89836 0.0839788L0.344605 1.75767C0.113106 1.87166 -0.0230581 2.11762 0.00322603 2.37432C0.189433 4.14329 0.96064 8.49184 5.23409 12.7656C9.50754 17.0394 13.8555 17.8103 15.6254 17.9965C15.8821 18.0227 16.128 17.8866 16.242 17.6551L17.9157 14.1013C18.0584 13.8157 17.9611 13.4684 17.6907 13.2985L14.2533 11.0854C14.0083 10.9319 13.6898 10.968 13.4852 11.1723L12.0955 12.5626C11.9603 12.6988 11.7694 12.7643 11.5791 12.7398C10.8907 12.6523 9.17268 12.2644 7.45461 10.5463Z" fill="#009AFF"/>
<path d="M14.2769 9.62076C13.9341 9.62076 13.6562 9.34286 13.6562 9.00007C13.6533 6.43029 11.5708 4.3478 9.00106 4.34489C8.65826 4.34489 8.38037 4.067 8.38037 3.72421C8.38037 3.38141 8.65826 3.10352 9.00106 3.10352C12.2561 3.10711 14.894 5.74498 14.8976 9.00007C14.8976 9.34286 14.6197 9.62076 14.2769 9.62076Z" fill="#009AFF"/>
<path d="M17.3804 9.62069C17.0376 9.62069 16.7597 9.3428 16.7597 9C16.7549 4.71702 13.284 1.24617 9.00106 1.24138C8.65826 1.24138 8.38037 0.963487 8.38037 0.62069C8.38037 0.277892 8.65826 0 9.00106 0C13.9694 0.0054732 17.9956 4.03171 18.0011 9C18.0011 9.16462 17.9357 9.32249 17.8193 9.43889C17.7029 9.5553 17.545 9.62069 17.3804 9.62069Z" fill="#009AFF"/>
</g>
<defs>
<clipPath id="clip0">
<rect width="18" height="18" fill="white"/>
</clipPath>
</defs>
</svg>
