<svg width="30" height="30" viewBox="0 0 30 30" fill="none" xmlns="http://www.w3.org/2000/svg">
<circle cx="15.3503" cy="14.6492" r="12.5564" fill="white"/>
<path fill-rule="evenodd" clip-rule="evenodd" d="M15.3503 0C23.4408 0 29.9994 6.55863 29.9994 14.6491C29.9994 22.7396 23.4408 29.2982 15.3503 29.2982C7.2598 29.2982 0.701172 22.7396 0.701172 14.6491C0.701172 6.55863 7.2598 0 15.3503 0ZM19.2531 12.7926C19.1819 12.2138 19.004 11.7593 18.688 11.3567C18.2777 10.8383 17.7535 10.5279 16.9773 10.3437C16.4714 10.221 16.267 10.2351 16.0841 10.4022C15.9137 10.5588 15.8804 10.8727 16.0106 11.0759C16.1022 11.2235 16.2079 11.2763 16.5017 11.334C16.893 11.406 17.1635 11.4994 17.4095 11.6401C17.9316 11.9416 18.1748 12.4134 18.2008 13.1772C18.213 13.5358 18.244 13.646 18.3692 13.7732C18.6014 14.0057 19.0145 13.9605 19.1898 13.6823C19.2541 13.5774 19.2639 13.5318 19.2707 13.2883C19.2752 13.1375 19.2687 12.9131 19.2531 12.7926ZM19.2601 9.24125C20.5015 10.2451 21.1951 11.6719 21.2982 13.4452C21.3416 14.1437 21.284 14.3712 21.0375 14.5008C20.8152 14.6209 20.5632 14.5813 20.3904 14.4006C20.2759 14.283 20.2319 14.1222 20.2336 13.8375C20.2386 13.0502 20.0573 12.1711 19.7624 11.561C19.4211 10.851 18.8935 10.2468 18.2298 9.80508C17.6485 9.41709 16.8791 9.15501 16.1331 9.08975C15.6493 9.04742 15.4765 8.96547 15.3836 8.73351C15.3261 8.59475 15.3413 8.35487 15.4087 8.24743C15.4725 8.14836 15.6156 8.0388 15.7168 8.00983C15.824 7.97855 16.449 8.03324 16.7885 8.1007C17.7152 8.28932 18.5607 8.67719 19.2601 9.24125ZM23.5613 20.2746C23.5266 20.1732 23.4456 20.0169 23.3878 19.9271C23.0235 19.377 21.0662 17.8452 20.089 17.3443C19.531 17.0576 19.1175 16.9621 18.8111 17.0518C18.4815 17.1445 18.308 17.2979 17.7558 17.9842C17.5332 18.2593 17.3048 18.517 17.2441 18.5575C17.0937 18.6617 16.7988 18.7457 16.5907 18.7457C16.1078 18.7428 15.2318 18.4301 14.5581 18.0189C14.0348 17.7005 13.3641 17.13 12.8495 16.5654C12.2423 15.9023 11.8289 15.3174 11.5022 14.6572C11.0801 13.8088 10.9731 13.2905 11.1494 12.9112C11.1928 12.8156 11.2507 12.7143 11.2766 12.6824C11.3027 12.6535 11.5745 12.4305 11.8751 12.1873C12.4649 11.7182 12.5603 11.6111 12.6702 11.2897C12.809 10.8814 12.7714 10.4644 12.5575 10.0446C12.3926 9.72606 11.9619 9.03113 11.6496 8.58233C11.2362 7.99166 10.2069 6.72919 10.0016 6.55831C9.63156 6.2572 9.15745 6.20505 8.6341 6.40778C8.08193 6.62205 7.04686 7.45596 6.6045 8.03798C6.20552 8.56496 6.05233 8.93847 6.02918 9.43072C6.00896 9.83608 6.04364 10.004 6.25759 10.5223C7.93158 14.5877 10.4295 17.8336 13.8614 20.4107C15.6539 21.7571 17.5129 22.7821 19.4413 23.4829C20.566 23.8911 21.0546 23.9114 21.63 23.5755C21.8728 23.4307 22.4742 22.814 22.8095 22.3652C23.3647 21.6181 23.57 21.2736 23.6278 20.9985C23.6682 20.8103 23.6364 20.4831 23.5613 20.2746ZM22.822 11.1092C23.1742 12.0266 23.3431 12.8494 23.3801 13.8525C23.386 14.0507 23.3833 14.4138 23.3704 14.6597C23.3437 15.1312 23.3181 15.2248 23.1824 15.3496C22.9642 15.5543 22.539 15.5055 22.3777 15.2588C22.2935 15.1265 22.2817 15.0295 22.298 14.4787C22.3448 12.8493 22.0152 11.5735 21.2213 10.2978C20.2727 8.76731 18.8537 7.73629 17.0086 7.23188C16.538 7.1035 16.1415 7.02525 15.5247 6.94222C15.123 6.88963 15.035 6.8674 14.9359 6.80637C14.6363 6.61453 14.6323 6.12874 14.9309 5.93398C15.085 5.83117 15.1986 5.82657 15.7009 5.8909C17.1736 6.07494 18.4878 6.51255 19.5676 7.17383C20.3416 7.64845 20.8296 8.07483 21.4579 8.82158C22.1224 9.61802 22.4743 10.2069 22.822 11.1092Z" fill="#0B45B7"/>
</svg>
