<svg width="49" height="49" viewBox="0 0 49 49" fill="none" xmlns="http://www.w3.org/2000/svg">
<path d="M35.0201 30.8177H32.7928L32.0223 30.0472C34.7679 26.8674 36.4208 22.735 36.4208 18.2105C36.4208 8.15266 28.2681 0 18.2105 0C8.15279 0 0 8.15266 0 18.2105C0 28.2682 8.15266 36.4209 18.2105 36.4209C22.735 36.4209 26.8674 34.7679 30.0472 32.0364L30.8177 32.8068V35.0201L44.8256 49L49 44.8256L35.0201 30.8177ZM18.2105 30.8177C11.2485 30.8177 5.60325 25.1724 5.60325 18.2105C5.60325 11.2485 11.2485 5.60325 18.2105 5.60325C25.1724 5.60325 30.8177 11.2485 30.8177 18.2105C30.8177 25.1724 25.1724 30.8177 18.2105 30.8177Z" fill="white"/>
</svg>
