<svg width="31" height="30" viewBox="0 0 31 30" fill="none"><circle cx="15.4519" cy="14.6492" r="12.5564" fill="white"></circle><path fill-rule="evenodd" clip-rule="evenodd" d="M15.4519 29.2982C7.36137 29.2982 0.802734 22.7396 0.802734 14.6491C0.802734 6.55863 7.36137 0 15.4519 0C23.5423 0 30.101 6.55863 30.101 14.6491C30.101 22.7396 23.5423 29.2982 15.4519 29.2982ZM22.8155 16.3079C22.9285 15.7989 22.9873 15.2718 22.9873 14.7302C22.9873 10.6727 19.6514 7.38238 15.5345 7.38238C15.1009 7.38238 14.6755 7.41951 14.2603 7.49016C13.5942 7.07626 12.8059 6.83625 11.9616 6.83625C9.57383 6.83625 7.63899 8.74362 7.63899 11.0984C7.63899 11.8845 7.85581 12.6199 8.23249 13.2539C8.13418 13.7303 8.08182 14.2248 8.08182 14.7302C8.08182 18.7894 11.4186 22.0789 15.5345 22.0789C16.0013 22.0789 16.4569 22.0363 16.8998 21.9557C17.5089 22.2781 18.2034 22.462 18.943 22.462C21.3299 22.462 23.2647 20.5537 23.2647 18.2007C23.2647 17.5206 23.103 16.8785 22.8155 16.3079Z" fill="#0B45B7"></path><path fill-rule="evenodd" clip-rule="evenodd" d="M19.3569 18.2424C19.0123 18.7242 18.5034 19.1046 17.8419 19.3745C17.1887 19.6426 16.4059 19.7794 15.5138 19.7794C14.4435 19.7794 13.5459 19.5937 12.8449 19.2269C12.3442 18.9606 11.9317 18.6002 11.6184 18.1527C11.3015 17.7035 11.1416 17.257 11.1416 16.825C11.1416 16.5569 11.2463 16.3233 11.4521 16.1322C11.6561 15.942 11.9179 15.8469 12.2303 15.8469C12.4857 15.8469 12.7071 15.9221 12.8863 16.0715C13.0581 16.2155 13.2051 16.4283 13.3236 16.7009C13.4559 16.9998 13.5992 17.2516 13.7508 17.4481C13.8978 17.6401 14.1082 17.8004 14.3764 17.9263C14.6465 18.0513 15.0113 18.1165 15.4587 18.1165C16.0752 18.1165 16.5805 17.9861 16.9599 17.7307C17.332 17.4816 17.5121 17.181 17.5121 16.8132C17.5121 16.5243 17.4174 16.2961 17.2245 16.1168C17.0205 15.9302 16.7532 15.7853 16.4289 15.6839C16.0899 15.5806 15.6305 15.4674 15.0618 15.3497C14.2873 15.1866 13.6304 14.9937 13.1086 14.7736C12.5739 14.5499 12.143 14.2393 11.8279 13.8508C11.5082 13.455 11.3456 12.9596 11.3456 12.3772C11.3456 11.8229 11.5155 11.3221 11.8518 10.891C12.1844 10.4626 12.6713 10.1275 13.2988 9.90018C13.9171 9.67466 14.6521 9.56055 15.4853 9.56055C16.1505 9.56055 16.7357 9.63662 17.2245 9.78697C17.716 9.93731 18.1294 10.1402 18.4547 10.3911C18.7827 10.6446 19.027 10.9136 19.1796 11.1944C19.3339 11.4779 19.4129 11.7595 19.4129 12.0322C19.4129 12.2948 19.31 12.5339 19.107 12.7413C18.903 12.9514 18.6449 13.0574 18.3417 13.0574C18.0661 13.0574 17.8492 12.9904 17.7004 12.8599C17.5608 12.7377 17.4156 12.5475 17.2548 12.2758C17.0692 11.928 16.8441 11.6536 16.586 11.4598C16.3352 11.2714 15.9171 11.1772 15.3411 11.1772C14.8082 11.1772 14.3728 11.2822 14.0503 11.4915C13.7398 11.6916 13.5882 11.9226 13.5882 12.1961C13.5882 12.3627 13.6369 12.5031 13.7379 12.6227C13.8427 12.7513 13.9924 12.8618 14.1817 12.9559C14.3774 13.0529 14.5795 13.1307 14.7816 13.1851C14.9883 13.2421 15.3356 13.3264 15.8124 13.4351C16.416 13.5618 16.97 13.7059 17.4597 13.8607C17.9567 14.0165 18.3849 14.2085 18.7358 14.434C19.0923 14.6632 19.3743 14.9566 19.5755 15.308C19.7767 15.6621 19.8787 16.0968 19.8787 16.6031C19.8787 17.2081 19.7023 17.7597 19.3569 18.2424Z" fill="#0B45B7"></path></svg>