<svg width="31" height="30" viewBox="0 0 31 30" fill="none" xmlns="http://www.w3.org/2000/svg">
<circle cx="15.5496" cy="14.6492" r="12.5564" fill="white"/>
<path fill-rule="evenodd" clip-rule="evenodd" d="M30.1986 14.6491C30.1986 22.7396 23.64 29.2982 15.5495 29.2982C7.45904 29.2982 0.900391 22.7396 0.900391 14.6491C0.900391 6.55865 7.45904 0 15.5495 0C23.64 0 30.1986 6.55865 30.1986 14.6491ZM10.7101 13.3072C9.24264 13.9479 7.73488 14.6063 6.35612 15.3657C5.63619 15.8928 6.59303 16.2657 7.49072 16.6155C7.63343 16.6711 7.77461 16.7261 7.90737 16.781C8.01785 16.815 8.13016 16.8508 8.24399 16.887C9.24239 17.2051 10.3556 17.5598 11.3249 17.0262C12.9171 16.1116 14.4197 15.0542 15.9212 13.9975C16.4131 13.6513 16.9049 13.3052 17.3996 12.9643C17.4228 12.9495 17.4489 12.9325 17.4776 12.914C17.899 12.6407 18.847 12.0263 18.4964 12.873C17.6672 13.7798 16.7791 14.5824 15.8861 15.3895C15.2843 15.9334 14.6803 16.4793 14.0906 17.0604C13.5771 17.4777 13.0438 18.3168 13.6189 18.9011C14.9433 19.8283 16.2885 20.733 17.6329 21.6372C18.0703 21.9314 18.5078 22.2256 18.9443 22.5205C19.6842 23.1112 20.8406 22.6334 21.0033 21.7103C21.0756 21.2857 21.1482 20.8611 21.2209 20.4364C21.6222 18.0897 22.0237 15.7421 22.3784 13.3878C22.4267 13.0184 22.4813 12.6491 22.536 12.2797C22.6685 11.3842 22.8012 10.4876 22.8426 9.5873C22.7358 8.68882 21.6464 8.8864 21.0402 9.08843C17.9241 10.2742 14.8391 11.5478 11.7663 12.8439C11.4182 12.998 11.0654 13.1521 10.7101 13.3072Z" fill="#0B45B7"/>
</svg>
