<svg width="30" height="30" viewBox="0 0 30 30" fill="none" xmlns="http://www.w3.org/2000/svg">
<circle cx="14.6492" cy="14.6492" r="12.5564" fill="white"/>
<path fill-rule="evenodd" clip-rule="evenodd" d="M14.6491 29.2982C6.55863 29.2982 0 22.7396 0 14.6491C0 6.55863 6.55863 0 14.6491 0C22.7396 0 29.2982 6.55863 29.2982 14.6491C29.2982 22.7396 22.7396 29.2982 14.6491 29.2982ZM15.132 22.7992C19.9347 22.7973 23.8408 18.8902 23.8427 14.0885C23.8437 11.761 22.9384 9.57248 21.2938 7.92603C19.6492 6.27951 17.4621 5.37235 15.1319 5.37134C10.3306 5.37134 6.42289 9.27881 6.42098 14.0816C6.42033 15.6169 6.82144 17.1154 7.58373 18.4364L6.34795 22.9503L10.9657 21.739C12.238 22.4329 13.6705 22.7987 15.1284 22.7992H15.132Z" fill="#0B45B7"/>
<path fill-rule="evenodd" clip-rule="evenodd" d="M11.1795 20.162L8.4393 20.8808L9.17071 18.2091L8.99856 17.9352C8.27382 16.7825 7.89104 15.4502 7.8916 14.0821C7.89319 10.0903 11.1411 6.84265 15.1347 6.84265C17.0685 6.84332 18.8864 7.59736 20.2533 8.96589C21.6203 10.3344 22.3726 12.1534 22.3719 14.088C22.3703 18.0802 19.1224 21.3281 15.1319 21.3281H15.1289C13.8298 21.3276 12.5555 20.9786 11.4439 20.3189L11.1795 20.162ZM19.5203 16.1599C19.4659 16.0691 19.3208 16.0147 19.1032 15.9057C18.8855 15.7967 17.8155 15.2702 17.6159 15.1975C17.4164 15.1249 17.2713 15.0887 17.1262 15.3065C16.9811 15.5243 16.564 16.0147 16.437 16.1599C16.3101 16.3051 16.1831 16.3234 15.9655 16.2144C15.7479 16.1054 15.0465 15.8756 14.2152 15.1341C13.5681 14.5569 13.1313 13.8442 13.0044 13.6263C12.8774 13.4084 12.9908 13.2906 13.0998 13.1821C13.1977 13.0846 13.3174 12.9278 13.4263 12.8008C13.5351 12.6737 13.5714 12.5829 13.6439 12.4377C13.7165 12.2924 13.6802 12.1653 13.6258 12.0564C13.5714 11.9474 13.1361 10.8761 12.9547 10.4403C12.778 10.0159 12.5986 10.0734 12.465 10.0666C12.3382 10.0603 12.1929 10.0589 12.0478 10.0589C11.9027 10.0589 11.6669 10.1134 11.4674 10.3313C11.2679 10.5492 10.7057 11.0758 10.7057 12.1471C10.7057 13.2184 11.4856 14.2534 11.5944 14.3986C11.7032 14.5439 13.1292 16.7423 15.3126 17.6851C15.8318 17.9094 16.2372 18.0433 16.5534 18.1436C17.0747 18.3093 17.5493 18.2859 17.9242 18.2298C18.3425 18.1674 19.212 17.7033 19.3934 17.1949C19.5747 16.6865 19.5747 16.2507 19.5203 16.1599Z" fill="#0B45B7"/>
</svg>
